HIERARCHY
ROOT Hips
{
  OFFSET 0 0 0
  CHANNELS 6 Xposition Yposition Zposition Zrotation Yrotation Xrotation
  JOINT LeftThigh
  {
    OFFSET 8.409438 0 -5.917753
    CHANNELS 3 Zrotation Yrotation Xrotation
    JOINT LeftLeg
    {
      OFFSET 0 0 -42.358652
      CHANNELS 3 Zrotation Yrotation Xrotation
      JOINT LeftFoot
      {
        OFFSET 0 0 -39.357303
        CHANNELS 3 Zrotation Yrotation Xrotation
      }
    }
  }
  JOINT RightThigh
  {
    OFFSET -8.409438 0 -5.917753
    CHANNELS 3 Zrotation Yrotation Xrotation
    JOINT RightLeg
    {
      OFFSET 0 0 -42.358652
      CHANNELS 3 Zrotation Yrotation Xrotation
      JOINT RightFoot
      {
        OFFSET 0 0 -39.357303
        CHANNELS 3 Zrotation Yrotation Xrotation
      }
    }
  }
  JOINT SpineLow
  {
    OFFSET 0 0 4.719101
    CHANNELS 3 Zrotation Yrotation Xrotation
    JOINT SpineMid
    {
      OFFSET 0 0 12.899191
      CHANNELS 3 Zrotation Yrotation Xrotation
      JOINT Chest
      {
        OFFSET 0 0 12.899191
        CHANNELS 3 Zrotation Yrotation Xrotation
        JOINT LeftShoulder
        {
          OFFSET 7.550562 1.41573 9.438202
          CHANNELS 3 Zrotation Yrotation Xrotation
          JOINT LeftArm
          {
            OFFSET 9.155056 0 4.247191
            CHANNELS 3 Zrotation Yrotation Xrotation
            JOINT LeftForearm
            {
              OFFSET 0 0 25.771955
              CHANNELS 3 Zrotation Yrotation Xrotation
              JOINT LeftHand
              {
                OFFSET 0 0 25.197169
                CHANNELS 3 Zrotation Yrotation Xrotation
              }
            }
          }
        }
        JOINT RightShoulder
        {
          OFFSET -7.550562 1.41573 9.438202
          CHANNELS 3 Zrotation Yrotation Xrotation
          JOINT RightArm
          {
            OFFSET -9.155056 0 4.247191
            CHANNELS 3 Zrotation Yrotation Xrotation
            JOINT RightForearm
            {
              OFFSET 0 0 -25.771955
              CHANNELS 3 Zrotation Yrotation Xrotation
              JOINT RightHand
              {
                OFFSET 0 0 -25.197169
                CHANNELS 3 Zrotation Yrotation Xrotation
              }
            }
          }
        }
        JOINT Neck
        {
          OFFSET 0 0 15.101124
          CHANNELS 3 Zrotation Yrotation Xrotation
          JOINT Head
          {
            OFFSET 0 0 11.325843
            CHANNELS 3 Zrotation Yrotation Xrotation
            End Site
            {
              OFFSET 0 0 14.157303
            }
          }
        }
      }
    }
  }
}
MOTION
Frames: 16
Frame Time: 0.01
0.0  101.685394  0.0  -3.451285  2.469289  -103.497929  32.230216  -27.83852  1.262131  -8.602031  8.663777  26.643484  8.876585  2.872503  5.858025  -17.187333  13.258352  -4.128766  8.649128  -0.109587  23.375593  6.658316  3.384998  -1.408944  -0.633678  -0.914186  1.674755  -1.79521  -2.453374  4.603329  -1.79521  -2.453374  4.603329  -14.095034  28.877063  4.028186  105.0989  79.08108  175.990588  -33.166229  18.247113  100.781425  76.617045  4.53764  -24.265074  17.833739  -8.577434  28.124144  45.65531  71.901014  -38.070706  -32.010035  -17.035089  -86.315276  69.376613  7.632682  -4.436018  5.37076  0.733697  -0.994566  4.029221  0.541584  -0.752432  
0.0  101.685394  0.0  -3.29443  1.555097  -103.567727  32.298516  -27.735934  1.348713  -8.164157  8.568087  27.225654  9.064624  2.952785  5.900753  -17.165405  13.226171  -4.585633  9.251374  -0.120872  23.940371  6.884695  3.452593  -1.432349  -0.645515  -0.974288  1.700452  -1.83284  -2.61599  4.675905  -1.83284  -2.61599  4.675905  -14.29535  29.033385  3.876361  106.666897  79.256385  177.750701  -33.619732  20.03513  100.282869  76.575444  4.639887  -24.650516  18.16924  -8.558667  28.453092  47.771336  71.293908  -36.450565  -31.870763  -17.380414  -86.548712  69.519276  7.142045  -4.899556  5.656209  0.950563  -0.728906  4.2432  0.706249  -0.555522  
0.0  101.685394  0.0  -3.077236  0.478466  -103.670142  32.732058  -27.687139  1.589396  -7.650588  8.426409  27.811349  9.062865  2.996969  5.800788  -16.795763  13.174383  -4.937328  9.868945  -0.173873  24.498902  6.913115  3.531264  -1.501966  -0.601254  -1.018714  1.7447  -1.716891  -2.739302  4.796497  -1.716891  -2.739302  4.796497  -14.38277  29.232427  3.798008  107.534992  79.555777  178.860387  -33.885118  21.517248  100.063377  75.896425  4.600783  -24.80966  18.003177  -8.439239  28.421427  50.579042  70.659402  -34.442524  -31.853992  -17.383299  -86.627786  70.226078  6.628622  -5.869141  5.927205  1.091788  -0.473582  4.446119  0.814339  -0.365806  
0.0  101.685394  0.0  -2.870484  -0.407524  -103.720295  32.834923  -27.506783  1.73932  -7.209693  8.268898  28.301112  9.213551  3.074162  5.823936  -16.752315  13.187531  -5.392087  10.544924  -0.198829  24.982559  7.138937  3.597712  -1.514633  -0.585714  -1.049686  1.79003  -1.678627  -2.823844  4.920737  -1.678627  -2.823844  4.920737  -14.429293  29.380449  3.684202  108.638763  79.952111  -179.930933  -34.115599  22.2516  99.511768  76.291866  5.019868  -24.411584  18.25489  -8.407495  28.403784  52.048845  70.211254  -33.430454  -31.945543  -17.248411  -86.518993  71.160963  5.918672  -7.038239  6.126014  1.207157  -0.343732  4.595022  0.90203  -0.269924  
0.0  101.685394  0.0  -2.677218  -1.622994  -103.864027  33.411506  -27.510017  2.026068  -6.766253  8.074558  28.712433  9.190777  3.15822  5.766572  -16.315278  13.009047  -5.663929  11.322824  -0.20632  25.402798  7.333868  3.682057  -1.500891  -0.529226  -1.089803  1.821692  -1.528673  -2.936881  5.006041  -1.528673  -2.936881  5.006041  -14.025518  29.767362  3.90994  108.701048  80.370134  -179.74231  -38.488292  18.663633  93.86051  72.889426  2.958395  -19.995357  18.469976  -8.352973  28.509973  53.287934  69.794281  -32.683293  -31.794437  -17.304567  -86.560544  71.875847  4.974906  -7.950931  6.386369  1.302793  -0.139615  4.789868  0.975762  -0.118339  
0.0  101.685394  0.0  -2.524449  -2.375447  -103.866715  33.421828  -27.355002  2.112942  -6.294509  7.932453  29.172443  9.282719  3.230585  5.768886  -16.273554  12.861218  -6.034914  12.224275  -0.224761  25.747599  7.244888  3.75368  -1.49478  -0.480131  -1.109111  1.829834  -1.396338  -2.993169  5.026646  -1.396338  -2.993169  5.026647  -14.040539  30.048544  4.074624  108.106005  80.689095  179.786003  -38.433208  18.349738  93.897192  73.913002  4.353136  -20.567111  18.408617  -8.404407  28.587689  53.808479  69.482266  -32.514524  -31.406218  -17.630286  -86.893724  72.42969  3.8463  -8.576065  6.441131  1.324624  -0.03299  4.830704  0.993251  -0.03871  
0.0  101.685394  0.0  -2.416381  -3.155053  -103.875819  33.715505  -27.364199  2.205013  -5.960666  7.868587  29.553368  9.256037  3.282882  5.680417  -16.154602  12.67414  -6.369391  13.370848  -0.423098  26.121979  6.84794  3.879064  -1.521392  -0.401584  -1.12556  1.828254  -1.182845  -3.044115  5.019169  -1.182845  -3.044115  5.019168  -13.969505  30.291113  4.393427  109.515187  80.878433  179.915913  -37.745327  18.308735  94.93777  73.99019  5.436886  -21.098073  18.177163  -8.513372  28.679591  54.001906  69.223269  -32.5713  -30.940647  -18.080916  -87.321634  72.563475  2.87118  -8.87455  6.453736  1.294251  0.060352  4.839968  0.971454  0.031596  
0.0  101.685394  0.0  -2.320366  -3.696468  -103.83843  33.722534  -27.212608  2.172415  -5.65104  7.772865  29.979391  9.373622  3.331161  5.666867  -16.005643  12.54489  -6.670694  13.926405  -0.480978  26.397439  6.715883  3.968339  -1.51085  -0.355189  -1.137431  1.818131  -1.056474  -3.080242  4.989604  -1.056474  -3.080242  4.989604  -13.97771  30.447454  4.678399  108.981967  81.004801  179.587792  -37.925495  17.003591  94.59713  72.740298  5.792719  -21.55803  18.004996  -8.614123  28.767484  54.0768  69.061313  -32.557113  -30.503388  -18.469659  -87.619587  72.326678  2.503487  -8.735885  6.47669  1.279407  0.114866  4.857076  0.9609  0.072595  
0.0  101.685394  0.0  -2.274489  -4.148425  -103.846927  33.780761  -27.136836  2.151183  -5.238169  7.630776  30.506815  9.293269  3.352566  5.523832  -15.769048  12.467342  -6.865159  14.273856  -0.505879  26.66113  6.672146  4.026327  -1.5251  -0.317936  -1.154545  1.81636  -0.955872  -3.129832  4.983365  -0.955872  -3.129832  4.983365  -13.950767  30.539439  4.992934  110.539104  80.97421  -179.607959  -37.613613  16.31408  95.241275  70.673798  5.667615  -21.847649  17.803515  -8.681153  28.8074  54.526966  68.980793  -32.077772  -30.244974  -18.86511  -88.043411  71.884437  2.494477  -8.137019  6.521806  1.248594  0.159324  4.890836  0.938272  0.106176  
0.0  101.685394  0.0  -2.228588  -4.426301  -103.865189  33.696741  -26.996447  2.097502  -5.015999  7.514754  30.905073  9.370838  3.397842  5.510389  -15.483383  12.456886  -6.98449  14.261296  -0.430031  26.886225  6.775512  4.034209  -1.558543  -0.301278  -1.170519  1.812549  -0.911374  -3.174782  4.972453  -0.911374  -3.174782  4.972453  -13.907063  30.589622  5.354807  109.784473  80.912506  179.918003  -37.830135  15.668792  95.369687  68.905587  5.434477  -21.999137  17.673794  -8.737565  28.842578  55.111845  68.959455  -31.378595  -30.055681  -19.285425  -88.631916  71.431036  2.650583  -7.146868  6.566365  1.250463  0.197711  4.924174  0.9401  0.134858  
0.0  101.685394  0.0  -2.236615  -4.604142  -103.892413  33.630526  -26.937771  1.997522  -4.71839  7.358666  31.353382  9.375919  3.457578  5.490345  -15.242207  12.419488  -7.087402  14.056169  -0.336223  27.12009  6.991694  4.068786  -1.588575  -0.293347  -1.193911  1.805659  -0.891142  -3.239374  4.953655  -0.891142  -3.239374  4.953655  -13.734824  30.664936  5.817734  109.335343  80.773876  179.423137  -37.741818  15.596705  95.996487  67.876274  5.338481  -21.884938  17.501859  -8.759413  28.871385  55.765991  68.972212  -30.658963  -29.983284  -19.557893  -89.089825  70.99072  2.886431  -6.200267  6.603164  1.220914  0.25987  4.951668  0.918621  0.181727  
0.0  101.685394  0.0  -2.244539  -4.6317  -103.91978  33.530712  -26.89692  1.887079  -4.536214  7.266119  31.723456  9.269219  3.523821  5.445935  -14.837589  12.401712  -7.093158  13.847379  -0.281607  27.333542  6.935138  4.096394  -1.619152  -0.312913  -1.220419  1.80146  -0.946434  -3.310376  4.943632  -0.946434  -3.310376  4.943632  -13.589287  30.769136  6.233725  108.470168  80.664157  178.851964  -37.855846  15.136801  96.28441  67.316574  5.586654  -21.506264  17.45258  -8.725665  28.929387  56.265028  69.007648  -30.136136  -30.034277  -19.367034  -89.243263  70.497061  3.200256  -5.566559  6.685092  1.249218  0.313562  5.012981  0.940477  0.221526  
0.0  101.685394  0.0  -2.27718  -4.602354  -103.931676  33.574773  -26.916476  1.74659  -4.348858  7.162478  32.111665  9.097411  3.575391  5.365389  -14.52775  12.413023  -7.182973  13.287737  -0.253006  27.549133  7.141122  4.239784  -1.586388  -0.353624  -1.248032  1.789332  -1.059211  -3.382959  4.913061  -1.059211  -3.382959  4.913061  -13.067884  30.984548  6.774661  107.777956  80.540921  178.250006  -37.716194  14.855778  96.796119  67.415452  6.11155  -20.924864  17.426923  -8.653658  29.008707  56.640479  69.070689  -29.755903  -30.004361  -18.947933  -89.371711  70.125864  3.5483  -5.145674  6.842434  1.242093  0.408032  5.130798  0.936278  0.292147  
0.0  101.685394  0.0  -2.279865  -4.481674  -103.937674  33.679214  -26.922489  1.591328  -4.512251  7.23253  32.323399  9.016877  3.622483  5.307087  -13.994701  12.444757  -7.187867  12.961298  -0.282246  27.815593  6.914115  4.305371  -1.612906  -0.399112  -1.27807  1.804543  -1.186635  -3.461328  4.957674  -1.186635  -3.461328  4.957674  -12.873099  31.121507  6.981689  107.830093  80.437475  178.537999  -37.655898  14.410344  96.98048  67.632968  6.746603  -20.359816  17.471159  -8.464167  28.986035  56.614574  69.198115  -29.711635  -29.978707  -18.512356  -89.448786  70.080734  3.903915  -4.954697  6.989847  1.315242  0.390431  5.241317  0.991051  0.277808  
0.0  101.685394  0.0  -2.306183  -4.483025  -103.97095  34.140565  -27.080297  1.438262  -4.698524  7.286699  32.553532  8.761237  3.685188  5.142702  -13.574771  12.471751  -7.300953  12.846779  -0.384233  28.199636  6.700509  4.375925  -1.646417  -0.427897  -1.314353  1.800196  -1.267874  -3.558358  4.948166  -1.267874  -3.558358  4.948166  -12.412839  31.33786  7.362581  107.706833  80.287768  178.713457  -37.552095  14.221151  97.126216  67.78941  7.336635  -19.946516  17.373051  -8.237499  29.066655  56.643763  69.347903  -29.68164  -29.920523  -18.275943  -89.634902  70.259985  4.006093  -4.862767  7.199608  1.345288  0.484589  5.398396  1.014842  0.34763  
0.0  101.685394  0.0  -2.259143  -4.30342  -103.935877  34.494893  -27.116518  1.235145  -5.196775  7.545263  32.628436  8.729277  3.729004  5.0583  -13.051807  12.50966  -7.366933  12.416284  -0.330579  28.534252  6.504114  4.41499  -1.674151  -0.477993  -1.33759  1.783263  -1.405697  -3.618445  4.905134  -1.405697  -3.618445  4.905134  -12.11443  31.481746  7.62145  108.25902  80.106928  179.450498  -37.438748  14.428026  97.193895  67.956705  7.862662  -19.76315  17.456488  -8.065912  29.197936  56.410808  69.565121  -29.767826  -29.795005  -18.020207  -89.969016  70.090442  3.87702  -4.847091  7.391953  1.424787  0.552341  5.542397  1.075459  0.397066  
